<svg xmlns="http://www.w3.org/2000/svg" width="54.196" height="54.196" viewBox="0 0 54.196 54.196">
  <g id="twitter" transform="translate(-0.001)">
    <circle id="Ellipse_2" data-name="Ellipse 2" cx="27.098" cy="27.098" r="27.098" transform="translate(0.001 0)" fill="#55acee"/>
    <g id="Group_689" data-name="Group 689" transform="translate(12.126 16.437)">
      <path id="Path_124" data-name="Path 124" d="M56.674,37.065a12.923,12.923,0,0,1-3.72,1.019A6.5,6.5,0,0,0,55.8,34.5a12.966,12.966,0,0,1-4.113,1.571,6.483,6.483,0,0,0-11.038,5.909A18.387,18.387,0,0,1,27.3,35.213a6.484,6.484,0,0,0,2,8.648,6.432,6.432,0,0,1-2.934-.811c0,.028,0,.055,0,.082a6.481,6.481,0,0,0,5.2,6.351,6.5,6.5,0,0,1-2.925.112,6.484,6.484,0,0,0,6.051,4.5A13.075,13.075,0,0,1,25.1,56.775a18.321,18.321,0,0,0,9.928,2.91c11.914,0,18.429-9.87,18.429-18.43,0-.281-.006-.56-.019-.838a13.135,13.135,0,0,0,3.233-3.352Z" transform="translate(-25.103 -34.028)" fill="#f1f2f2"/>
    </g>
  </g>
</svg>
