<svg xmlns="http://www.w3.org/2000/svg" width="54.196" height="54.196" viewBox="0 0 54.196 54.196">
  <g id="pinterest" transform="translate(-0.001 -0.002)">
    <circle id="Ellipse_3" data-name="Ellipse 3" cx="27.098" cy="27.098" r="27.098" transform="translate(0.001 0.002)" fill="#cb2027"/>
    <g id="Group_690" data-name="Group 690" transform="translate(14.009 11.881)">
      <path id="Path_125" data-name="Path 125" d="M44.277,49c-2.049-.158-2.909-1.174-4.516-2.15-.883,4.633-1.962,9.074-5.158,11.394-.988-7,1.448-12.262,2.579-17.844-1.928-3.246.232-9.78,4.3-8.17,5.006,1.98-4.334,12.07,1.936,13.33,6.546,1.316,9.218-11.358,5.158-15.48-5.865-5.952-17.072-.135-15.694,8.385.336,2.083,2.488,2.715.86,5.589-3.754-.831-4.873-3.792-4.73-7.739.232-6.461,5.805-10.985,11.4-11.611,7.069-.791,13.7,2.6,14.62,9.246,1.03,7.505-3.192,15.633-10.75,15.049Z" transform="translate(-29 -24.593)" fill="#f1f2f2"/>
    </g>
  </g>
</svg>
